<svg width="400" height="300" xmlns="http://www.w3.org/2000/svg">
  <!-- Calculator body -->
  <rect x="100" y="20" width="200" height="260" rx="10" fill="#34495e" stroke="#2c3e50" stroke-width="3"/>
  
  <!-- Display screen -->
  <rect x="120" y="40" width="160" height="40" rx="5" fill="#95a5a6" stroke="#7f8c8d" stroke-width="2"/>
  <text x="270" y="68" font-family="monospace" font-size="24" fill="#2c3e50" text-anchor="end" font-weight="bold">123</text>
  
  <!-- Button grid -->
  <!-- Row 1 -->
  <rect x="120" y="100" width="35" height="30" rx="3" fill="#ecf0f1" stroke="#bdc3c7" stroke-width="1"/>
  <text x="137.5" y="120" font-family="Arial, sans-serif" font-size="16" fill="#2c3e50" text-anchor="middle" font-weight="bold">7</text>
  
  <rect x="165" y="100" width="35" height="30" rx="3" fill="#ecf0f1" stroke="#bdc3c7" stroke-width="1"/>
  <text x="182.5" y="120" font-family="Arial, sans-serif" font-size="16" fill="#2c3e50" text-anchor="middle" font-weight="bold">8</text>
  
  <rect x="210" y="100" width="35" height="30" rx="3" fill="#ecf0f1" stroke="#bdc3c7" stroke-width="1"/>
  <text x="227.5" y="120" font-family="Arial, sans-serif" font-size="16" fill="#2c3e50" text-anchor="middle" font-weight="bold">9</text>
  
  <rect x="255" y="100" width="35" height="30" rx="3" fill="#e67e22" stroke="#d35400" stroke-width="1"/>
  <text x="272.5" y="120" font-family="Arial, sans-serif" font-size="16" fill="#fff" text-anchor="middle" font-weight="bold">รท</text>
  
  <!-- Row 2 -->
  <rect x="120" y="140" width="35" height="30" rx="3" fill="#ecf0f1" stroke="#bdc3c7" stroke-width="1"/>
  <text x="137.5" y="160" font-family="Arial, sans-serif" font-size="16" fill="#2c3e50" text-anchor="middle" font-weight="bold">4</text>
  
  <rect x="165" y="140" width="35" height="30" rx="3" fill="#ecf0f1" stroke="#bdc3c7" stroke-width="1"/>
  <text x="182.5" y="160" font-family="Arial, sans-serif" font-size="16" fill="#2c3e50" text-anchor="middle" font-weight="bold">5</text>
  
  <rect x="210" y="140" width="35" height="30" rx="3" fill="#ecf0f1" stroke="#bdc3c7" stroke-width="1"/>
  <text x="227.5" y="160" font-family="Arial, sans-serif" font-size="16" fill="#2c3e50" text-anchor="middle" font-weight="bold">6</text>
  
  <rect x="255" y="140" width="35" height="30" rx="3" fill="#e67e22" stroke="#d35400" stroke-width="1"/>
  <text x="272.5" y="160" font-family="Arial, sans-serif" font-size="16" fill="#fff" text-anchor="middle" font-weight="bold">ร</text>
  
  <!-- Row 3 -->
  <rect x="120" y="180" width="35" height="30" rx="3" fill="#ecf0f1" stroke="#bdc3c7" stroke-width="1"/>
  <text x="137.5" y="200" font-family="Arial, sans-serif" font-size="16" fill="#2c3e50" text-anchor="middle" font-weight="bold">1</text>
  
  <rect x="165" y="180" width="35" height="30" rx="3" fill="#ecf0f1" stroke="#bdc3c7" stroke-width="1"/>
  <text x="182.5" y="200" font-family="Arial, sans-serif" font-size="16" fill="#2c3e50" text-anchor="middle" font-weight="bold">2</text>
  
  <rect x="210" y="180" width="35" height="30" rx="3" fill="#ecf0f1" stroke="#bdc3c7" stroke-width="1"/>
  <text x="227.5" y="200" font-family="Arial, sans-serif" font-size="16" fill="#2c3e50" text-anchor="middle" font-weight="bold">3</text>
  
  <rect x="255" y="180" width="35" height="30" rx="3" fill="#e67e22" stroke="#d35400" stroke-width="1"/>
  <text x="272.5" y="200" font-family="Arial, sans-serif" font-size="16" fill="#fff" text-anchor="middle" font-weight="bold">-</text>
  
  <!-- Row 4 -->
  <rect x="120" y="220" width="35" height="30" rx="3" fill="#ecf0f1" stroke="#bdc3c7" stroke-width="1"/>
  <text x="137.5" y="240" font-family="Arial, sans-serif" font-size="16" fill="#2c3e50" text-anchor="middle" font-weight="bold">0</text>
  
  <rect x="165" y="220" width="35" height="30" rx="3" fill="#ecf0f1" stroke="#bdc3c7" stroke-width="1"/>
  <text x="182.5" y="240" font-family="Arial, sans-serif" font-size="16" fill="#2c3e50" text-anchor="middle" font-weight="bold">.</text>
  
  <rect x="210" y="220" width="35" height="30" rx="3" fill="#3498db" stroke="#2980b9" stroke-width="1"/>
  <text x="227.5" y="240" font-family="Arial, sans-serif" font-size="16" fill="#fff" text-anchor="middle" font-weight="bold">=</text>
  
  <rect x="255" y="220" width="35" height="30" rx="3" fill="#e67e22" stroke="#d35400" stroke-width="1"/>
  <text x="272.5" y="240" font-family="Arial, sans-serif" font-size="16" fill="#fff" text-anchor="middle" font-weight="bold">+</text>
</svg>
